<?xml version="1.0" encoding="UTF-8"?>
<svg xmlns="http://www.w3.org/2000/svg" viewBox="60 20 280 175" role="img" aria-label="Парусный клуб «Остров»">
  <title>Парусный клуб «Остров»</title>
<g id="new_logo">
    <path fill="#ffffff" d="M103.66,83.32c5.18.39,8.72,4.74,9.57,9.45.48.1.33-.06.46-.25,1.06-2.08,1.93-4.15,3.82-5.65,4.1-2.24,7.92-3.16,12.22-.59.02.06.3.18.2.39-2.92.45-5.33,2.35-8.35,2.17-.07.53.02.31.31.39.37.11.87.39.92.39-1.37,1.06-4.3,2.68-4.68,4.33,4.52-1.62,9.98-1.75,13.84,1.38.94.75,4.72,5.62,3.05,6.1-.35-.74-1.36-.75-1.83-.98-1.17-.69-2.88-1.29-4.28-1.57-.39-.22-2.58-3.12-1.43-.59-2.57-.29-5.16-.66-7.74-.19,6.69,2.13,10.94,8.01,8.55,14.76-.13.06-.28.16-.41.2-.97-2.85-3.95-4.91-4.28-7.87l-.4,1.18c-1.58-1.67-3.45-3.33-5.7-4.13,2.86,4.44,2.46,10.69-1.53,14.37-.34.13-.47-.59-.51-.79.69.21.5-1.49.2-1.97.17-2.12-.84-4.17-.61-6.3,1.18.29.04-2.38-.2,0-.07.01-.2.21-.41.2-.03-1.86-1.23-3.43-1.84-5.12-1.4.61-.99,3.9-1.63,5.31-.75,4.02-1.15,9.84-.61,13.98.78,4.59,1.38,10.75,3.66,14.37.05-.04-.04-.36,0-.39,7.33-5.97,10.08-12.73,21.58-11.62,1.11.02,5.92.5,5.7,1.77-.86,5.22-1.5,10.52-2.44,15.75-.95.2-1.81,2.06-.81,2.56.22.4.44,1.04,1.02.98.48.54,1.14.59,1.83.59,3.43,1.41,7.59,2.45,11.4,3.15,2.13.94,4.93.71,6.92,1.97-6.5.33-13.24.24-19.54,1.77-2.93.36-5.14,1.14-7.94,1.97-2.63.62-3.97,1.99-3.46,4.73-.59.71-1.25,1.86-2.04,2.36-1.83,0-3.67,0-5.5,0-.45-.34-1.62-.33-2.04,0-7.53-.01-15.07,0-22.6,0-.13-.31-.88-.31-1.02,0-10.45,0-20.9,0-31.35,0v-.39c.67-.42,1.5.09,2.04-.59,3.6-.75,7.07-1.54,10.79-1.97,2.73.04,2.45-.26,3.66-2.56,1.48-2.59,4.41-3.51,7.12-4.43,3.4-5.67,8.01-6.09,13.85-7.97-1.57-5.12-3.97-10.18-4.68-15.55-1.18-2.88.58-7.66-2.85-2.17-1.22.21-.64.45-.86,1.23s-.6,1.52-.77,2.31c-.11.55.12,2.28-.61,1.58-2.07-2.91-1.04-6.25,1.22-8.66-.59-.14-2.72.94-3.47.69-.43,1.02-1.43,1.13-2.41,1.79-.57.31-1.32,1.83-1.85,1.26l.41-2.56c1.42-2.99,4.7-4.19,7.94-3.94-.58-.64-2.17-1.8-3.05-1.77l.41-.79c-1.87.6-3.64-.65-5.5,0-.09-1.16,2.79-2.09,3.87-2.25.26-.08.55-.44.71-.44,2.44.79,4.27,1.78,6.01,3.68.8-6.17,11.95-5.22,6.38-3.18-.52.3-.95.67-1.44.97-.6.36-.95-.09-.77.82l-1.73,2.38c3.63-1.62,6.96,0,8.35,3.45l-4.41-1.27-2.52.19c2.54,1.49,4.17,4.69,3.26,7.48-.31.3-.35-.1-.45-.25-1.45-2.17-2.56-3.96-5.04-5.26-.03,2.44,5.53,21.71,8.96,17.82,3.61-1.91,3.86-1.96,2.5-5.97-2.67-11.49-2.6-23.58,1.77-34.69-3.48.86-6.88,2.33-9.67,4.53v-1.57c-.85.59-.77,1.77-1.24,2.54-1.13,1.48-3.51,3.4-4.36,5.33-.01,0-.1.18-.18.19-1.09-2.39.17-5.41.39-7.67.51.11.42-.26.57-.52,1.6-3.96,5.83-5.54,9.81-6.27-1.83-.77-3.96-.71-5.9-.69l.31-.98c-.54.29-.91.51-1.33.98-.73.01-1.51-.04-2.24,0l.41-.98c-.63-.16-.68.66-.81.79s-.49.01-.81.59c-2.09.3-4.43.91-6.11,2.17-.32.04-.75.04-.61-.39.4-.5.7-1.9.87-2.51.37-.83,4.46-3.81,5.44-4.19.25-.1.89.16,1.02-.39,4.45-1.12,9.3-.09,13.23,2.16.19-.17-2.72-3.74-3.04-4.05-.76-.31-.98-.65-1.44-1.26,3.45-.51.35-.74-1.02-1.08-1.78-.66-3.6-2.14-5.5-2.26l-1.22-.49c1.76-1.41,4.33-1.65,6.51-1.48ZM117.96,94.14c0-.32-.51-.32-.5,0,0,.32.51.32.5,0ZM95.92,118.56c-.29-.14-.54.12-.41.19.29.14.54-.12.41-.19Z"></path>
    <path fill="#ffffff" d="M236.81,98.87l.61.2c.08.09.45.18.61.2-1.38.97-2.87,1.52-4.27,2.56-.99.82-2.05.56-2.85,1.38.4.09.97-.21,1.22.2-1.25,1.39-2.71,2.88-3.16,4.72,5.03-4.05,13.39-3.2,16.39,2.76.11.64.56,1.15-.41.98-2.26-1.88-5.74-1.06-8.14-2.36.07.99.04.77-.82.79-1.05.13-4.28.04-4.48.98,6.04.08,10.85,6.36,9.16,11.81-.32.28-.37-.13-.46-.25-.41-.5-.76-1.18-1.16-1.72-1.53-1.51-2.81-3.03-3.66-4.73.04.38-.06.82,0,1.18-2.59-.96-4.52-2.7-7.33-3.15,5.77,10.82,6.5,24.03,3.66,35.83,1.84.6,3.53,1.22,5.5,1.38.77.47,2.15.63,3.05.59.82.49,1.9.71,2.85.79,1.82.72,3.21,1.82,4.89,2.76.42,1.04,1.55,1.61,2.17,2.53,5.96.43,11.71,1.39,17.37,3.18.08.35-.34.13-.41.19h-55.58c-1.9-7.86-3.67-15.75-5.5-23.63,8.87-1.12,14.47,6.8,21.57,10.03,2.4-7.76,3.65-16.48,1.43-24.6-.64-2.63-1.7-4.79-2.43-7.4-.08-.15-.06-.61-.42-.28-.78,1.26-1,3.53-1.94,4.73l-.71-.79c.95,2.7-.32,5.13.2,7.87.06.27-.16.45-.41.39-.5-.47-1.04-1.46-1.63-1.58-1.79-3.72-2.17-7.14.2-10.83-1.75.48-3.54,2.64-5.09,3.54l-.41-1.18-.41,2.36c-1.27.88-1.8,2.56-2.62,3.87-.38.58-.03,1.13-.84.86-1.01-3.13-.73-6.19,1.02-9.06,1.47-1.79,3.92-2.85,5.9-3.94-1.93-.25-3.76.04-5.7,0l.31-.98c-2.07,2.23-5.21,2.34-7.84,3.74,1.01-6.82,9.28-8.51,15.07-6.5-.13.62.69.61.2,0-1.01-1.43-2.97-2.71-4.3-3.64-.23-.24.02-.26.03-.29.26-.02.57-.1.61-.39-2.52.2-4.41-1.9-6.92-1.77-.79-.59,1.97-1.34,2.4-1.52,5.2-1.4,9.9,1.85,11.75,6.44.49.09.25-.22.29-.49.27-1.11.34-2.17.82-3.24.01-.02.28.06.41-.13,2.03-4.06,5.79-5.15,10.17-4.39Z"></path>
    <g id="Cat">
      <g>
        <path fill="#ffffff" d="M239.01,178.37c.1,0,.33.23.81.2v.2c-.6-.05-1.07.16-1.63.2-1.42.1-2.85.13-4.28.2-1.64.08-4.86.56-6.31,0l.52-1.39c3.63.11,7.25.38,10.88.6Z"></path>
        <path fill="#ffffff" d="M168.81,100.84c.2,16.36.9,32.68.81,49.02-4.12-1.02-28.87-4.08-28.5-7.38,6.37-37.62,9.07-76.68,24.43-112.13.68-.15,1.55-1.58,1.83-2.17,1.42,23.81.5,48.59,1.43,72.65Z"></path>
        <path fill="#ffffff" d="M172.68,51.62c3.69,6.48,6.44,13.34,9.57,19.89,11.39,28.65,20.49,58.77,26.67,88.99-9.03-6.7-20.53-10.1-31.55-12.41,6.95-31.68.84-67.01-4.68-96.47Z"></path>
        <path fill="#ffffff" d="M175.93,157.54c6.92-.31,12.61,2.19,17.56,6.55,12.77,1.02,25.89.53,38.63,2.31.1.16.17.38.41.39.03,1.75-.82,3.04-1.02,4.73-.49.12-.32.5-.41.79-.38,2.17-1.56,3.99-2.24,6.1-.35.15-.6.4-.61.79-14.71.34-31,.49-45.2-.98-.03-.12.04-.32,0-.39.53-.19.31-.97.91-.99l12.73-.39c-4.05-.79-8.31-.61-12.42-1.18l2.37-7.26c7.5-.54,27.27,2.75,31.83-1.4l-31.56-.59c.31-5.78-19.19-2.77-23.71-3.75-.28-.05-3.91-3.38-3.97-3.64,4.74-1.79,11.34-1.04,16.69-1.08Z"></path>
        <path fill="#ffffff" d="M169.83,31.15c1.35,41.57,3.57,83.22,4.48,124.82-14.38-.78-29.98.6-43.67,1.57,12.46-5.18,27.61-4.17,40.82-2.36-.28-43.12-3.12-86.97-2.34-129.74,1.37,1.05.37,4.07.71,5.71Z"></path>
        <path fill="#ffffff" d="M108.14,177.23c1.08-.03,2.18.02,3.26,0-.28,1.05.94.92,1.02,1.77-6.99.06-13.98-.66-20.97-.59v-.39c5.57-.39,11.13-.49,16.69-.79Z"></path>
        <path fill="#ffffff" d="M181.23,177.23c-.44,1.04-1,2.62-2.24,2.76-5.52.13-11.46.04-17-.2-16.38-.02-33.21-.59-49.57-.79-.08-.85-1.3-.72-1.02-1.77,8.4.06,18.26-.66,26.06-.69-8.33-.21-17.16-.88-25.65-.89.64-2.87,2.92-6.48,5.36-8.11,18.32-3.38,39.43-3.52,58.07-2.92,14.24,0,8.89,1.66,6,12.61Z"></path>
        <path fill="#ffffff" d="M160.05,162.46c-5.33-.21-10.68.3-15.99.4-.3-.04-.33.12-.31-.3.01-.24,1.29-3.74,1.41-3.91,5.26-.92,11.95-1.22,14.88,3.81Z"></path>
        <path fill="#ffffff" d="M133.59,159.51c2.22-.36,4.48-.54,6.72-.79.28.28-1.81,4.36-2.17,4.49l-8.82.82,2.65-4.13c.54-.12.91-.28,1.63-.39Z"></path>
      </g>
    </g>
  </g>
</svg>
