<svg xmlns="http://www.w3.org/2000/svg" viewBox="0 0 600 720" aria-hidden="true">
  <defs>
    <pattern id="dots-a" x="0" y="0" width="14" height="14" patternUnits="userSpaceOnUse">
      <circle cx="1" cy="1" r="0.7" fill="#5A6B79" opacity="0.25" />
    </pattern>
  </defs>
  <rect width="600" height="720" fill="url(#dots-a)" />
  <path d="M 30 240 Q 80 150, 200 130 Q 320 110, 420 160 Q 520 200, 560 280 Q 580 380, 500 460 Q 400 540, 280 530 Q 160 510, 100 460 Q 40 400, 30 320 Z" fill="#DCEBF5" stroke="#1B4F72" stroke-width="1.5" />
  <path d="M 180 220 Q 260 200, 340 230 Q 400 270, 380 340 Q 320 380, 240 360 Q 180 320, 180 220 Z" fill="#B8D6E8" stroke="#1B4F72" stroke-width="1" />
  <path d="M 250 270 Q 300 255, 330 285 Q 340 320, 305 335 Q 260 330, 250 300 Z" fill="#DDECDB" stroke="#1A4D1D" stroke-width="1.5" />
  <circle cx="268" cy="290" r="3" fill="#1A4D1D" />
  <circle cx="290" cy="275" r="3" fill="#1A4D1D" />
  <circle cx="310" cy="295" r="3" fill="#1A4D1D" />
  <circle cx="295" cy="318" r="3" fill="#1A4D1D" />
  <circle cx="275" cy="310" r="3" fill="#1A4D1D" />
  <text x="430" y="180" font-family="Montserrat, sans-serif" font-size="13" font-weight="500" fill="#0E2F46">????????????</text>
  <text x="430" y="195" font-family="Montserrat, sans-serif" font-size="13" font-weight="500" fill="#0E2F46">?????????????</text>
  <text x="200" y="380" font-family="JetBrains Mono, monospace" font-size="10" fill="#1B4F72" letter-spacing="0.1em">????????????? ?????</text>
  <line x1="290" y1="305" x2="320" y2="220" stroke="#2E7D32" stroke-width="1" stroke-dasharray="3 3" />
  <circle cx="320" cy="220" r="16" fill="#fff" stroke="#2E7D32" stroke-width="2" />
  <circle cx="320" cy="220" r="6" fill="#2E7D32" />
  <text x="345" y="218" font-family="Montserrat, sans-serif" font-size="14" font-weight="500" fill="#0E2F46">«??????»</text>
  <text x="345" y="232" font-family="JetBrains Mono, monospace" font-size="10" fill="#5A6B79">?????? · 133 ?? ?? ??????</text>
  <circle cx="80" cy="540" r="5" fill="#0E2F46" />
  <text x="90" y="544" font-family="JetBrains Mono, monospace" font-size="11" fill="#0E2F46" font-weight="600">?????</text>
  <circle cx="500" cy="650" r="6" fill="#0E2F46" />
  <text x="510" y="655" font-family="JetBrains Mono, monospace" font-size="11" fill="#0E2F46" font-weight="600">??????</text>
  <text x="510" y="670" font-family="JetBrains Mono, monospace" font-size="9" fill="#5A6B79">~ 2 ???? ? ????</text>
  <path d="M 290 305 Q 380 470, 500 650" stroke="#2E7D32" stroke-width="1.5" stroke-dasharray="4 4" fill="none" opacity="0.7" />
  <g transform="translate(70, 660)">
    <circle r="26" fill="#fff" stroke="#D6DEE5" />
    <text text-anchor="middle" y="-10" font-family="JetBrains Mono, monospace" font-size="10" fill="#0E2F46" font-weight="600">N</text>
    <path d="M 0 -16 L 4 0 L 0 4 L -4 0 Z" fill="#2E7D32" />
    <path d="M 0 16 L 4 0 L 0 -4 L -4 0 Z" fill="#0E2F46" opacity="0.5" />
  </g>
  <g transform="translate(420, 690)">
    <line x1="0" y1="0" x2="80" y2="0" stroke="#0E2F46" stroke-width="1" />
    <line x1="0" y1="-4" x2="0" y2="4" stroke="#0E2F46" stroke-width="1" />
    <line x1="80" y1="-4" x2="80" y2="4" stroke="#0E2F46" stroke-width="1" />
    <text x="40" y="-6" text-anchor="middle" font-family="JetBrains Mono, monospace" font-size="9" fill="#0E2F46">10 ??</text>
  </g>
</svg>
