<?xml version="1.0" encoding="UTF-8"?>
<svg id="New_Layer" data-name="New Layer" xmlns="http://www.w3.org/2000/svg" viewBox="0 0 493.15 493.37">
  <defs>
    <style>
      .cls-1 {
        fill: #ffffff;
      }

      .cls-1, .cls-2 {
        fill-rule: evenodd;
      }

      .cls-2, .cls-3 {
        fill: #ffffff;
      }

      .cls-3 {
        font-family: Candara-Bold, Candara;
        font-size: 72.03px;
        font-weight: 700;
        letter-spacing: -.01em;
        stroke: none;
      }
    </style>
  </defs>
  <path class="cls-2" d="M401.87,15.47c-5.01,14.93-17.89,52.97-24,71.05l-3,8.78-1.46.66c-3.22,1.5-3.8,3.07-2.38,6.44l.77,1.76-2.56,7.46c-2.45,7.24-4.76,13.9-14.12,40.97-2.49,7.13-4.65,13.65-4.79,14.41-.33,1.83-.73,1.06-1.06-2.2-.15-1.43-.59-3.8-.99-5.3-.77-2.89-.88-8.16-.33-15.18l.26-3.29,8.56-13.61c7.54-11.93,8.71-13.65,9.51-13.65,1.87-.04,2.85-1.57,2.16-3.48-.4-1.13-.33-1.46.88-4.17,1.54-3.29,1.54-3.33.88-3.33-.26,0-1.1,1.39-1.87,3.11-1.28,2.85-1.5,3.11-2.45,3.11-1.43,0-2.34,1.39-2.01,3.11.22,1.21-.29,2.12-8.23,14.71-4.68,7.43-10.5,16.43-12.95,20.05-4.54,6.69-15,22.32-48.18,71.89-10.17,15.18-24.95,37.24-32.82,48.99-10.68,15.99-14.3,21.66-14.3,22.46,0,1.02.07.99,2.96-1.72,6.69-6.29,15.07-9.73,23.74-9.73,4.72,0,6.95.7,9.18,2.93,1.9,1.9,2.71,4.21,2.3,6.77-.15,1.06-.04,1.9.33,2.56l.51,1.02.8-2.41c1.28-3.77,5.6-12.22,8.41-16.39,3.18-4.72,4.28-6.04,11.41-13.76,7.9-8.49,13.57-13.32,19.17-16.28,2.71-1.46,3.11-1.57,5.67-1.54,1.5.04,3.07.11,3.48.18.8.18.59,1.17,3.44-15.04,3.69-21.07,6.11-39.07,7.54-56.16.73-8.85.95-10.9,1.13-10.72.55.55.8,9.33.51,15.58-.48,9-4.06,32.38-9,58.9-1.65,8.89-1.68,8.93-.95,9.69,1.72,1.87,2.34,4.06,2.3,8.01-.04,5.67-2.34,11.89-6.95,18.73l-2.52,3.8-1.32,5.93-1.32,5.93.8,2.23c.88,2.41,1.06,5.6.55,8.93-.29,1.79-.29,1.87.44,1.68,1.17-.29,3.95.91,4.72,2.01.95,1.32,2.63,6.55,2.63,8.09,0,1.87-.95,3.48-3.37,5.71-3.59,3.33-10.28,6.77-13.13,6.77-.4,0-.88.37-1.06.8-.18.48-1.9,7.1-3.84,14.74s-4.1,16.1-4.83,18.77c-.73,2.74-1.17,5.01-.99,5.16s3.88,1.06,8.19,2.05c11.38,2.56,10.13,2.01,10.02,4.5-.04,1.17-.18,2.71-.33,3.44-.18.91-.07,1.57.33,2.2.59.88.55.95-.8,2.01-.88.73-1.57,1.65-1.83,2.6-.66,2.16-3.59,8.01-5.3,10.54-.84,1.24-1.68,2.52-1.9,2.85-.33.55-.8.44-5.16-1.13l-4.83-1.76-4.43-4.94c-2.41-2.71-4.43-5.05-4.43-5.23s1.65-5.49,3.62-11.74c5.12-16.02,7.68-24.36,10.46-34.06,1.32-4.65,2.49-8.63,2.6-8.89.07-.29-1.06.62-2.56,2.01-6.44,5.93-14.38,9.22-19.72,8.16-4.35-.84-7.06-3-9.11-7.28-.62-1.32-1.21-2.49-1.24-2.56-.07-.04-.88.15-1.87.48-.95.29-3,.77-4.5.99-2.63.44-2.82.55-5.19,2.74-6.44,6-14.71,7.98-22.02,5.23-2.56-.95-6.04-4.06-7.28-6.51l-.84-1.76-2.74,2.01c-3.29,2.41-8.34,4.9-12.04,5.93-1.5.4-4.43.88-6.51.99l-3.8.22-2.2,3.29c-1.21,1.79-2.05,3.37-1.87,3.51.48.44,9.77,6.29,13.83,8.71,13.79,8.23,28.75,15.15,46.28,21.4,3.91,1.39,7.17,2.6,7.24,2.67.04.04-.55,1.87-1.32,4.06l-1.43,3.99-3.62.26c-4.35.29-9.62,1.17-12.15,1.98l-1.83.59-6.37-4.17c-12.84-8.52-18.88-11.6-25.57-12.95-3.84-.77-10.06-.55-11.52.4-3.11,2.05-3.51,10.02-.91,17.96.4,1.17.66,2.2.59,2.27-.15.15-1.46-.26-31.21-9.58-11.89-3.73-21.88-6.8-22.13-6.8-1.02,0,.22,9.26,1.76,13.43,3.15,8.38,9.48,14.41,18.8,17.93,5.49,2.09,9.55,2.6,31.32,3.95,18.26,1.13,20.6,1.35,21.4,1.98,2.85,2.09,8.38,4.02,14.08,4.94,3.4.55,26.16,2.2,53.41,3.84,6.44.4,16.97.8,23.41.95,13.54.22,28.02.7,45.91,1.46,34.97,1.5,43.17,1.5,43.17,0,0-.59-.7-.7-8.78-1.28-5.93-.44-13.83-1.39-19.97-2.49l-3.62-.62-.22-1.54c-.11-.88-.33-1.68-.48-1.83s-1.98-.4-4.06-.51c-3.11-.22-3.95-.4-4.9-1.1-.62-.44-1.13-.91-1.13-1.06,0-.11,2.09-.15,4.68-.07,6.15.15,29.34-.48,30.18-.84.51-.22.95-1.65.51-1.65-1.32,0-5.34-1.17-8.49-2.45-8.52-3.51-16.94-4.57-42.91-5.45-6.66-.22-7.46-.29-7.76-.91-.22-.37-.37-2.27-.37-4.24,0-3.15-.11-3.8-.91-5.3-.51-.95-1.1-2.6-1.32-3.66-.26-1.06-1.1-3.62-1.87-5.71-1.83-4.65-2.56-5.38-5.3-5.05-1.61.18-1.98.11-2.27-.44-.26-.51-.22-.91.26-1.57.33-.48.7-1.72.8-2.74l.18-1.87,5.12,1.21c8.01,1.94,34.32,7.98,42.77,9.84,4.24.91,7.72,1.72,7.79,1.79.4.4-.91,1.98-2.2,2.6-.8.4-1.61,1.02-1.79,1.35-.15.37-.48.95-.66,1.28-.22.37-1.02,2.01-1.83,3.62-.8,1.65-1.72,3.18-2.01,3.44-.7.59-.73,2.74-.04,3.37.44.4.37.66-.44,1.76l-.91,1.28,1.24-1.13c.7-.66,1.61-1.28,2.05-1.39.99-.33,2.3-1.9,2.3-2.82,0-.37.33-.84.7-1.06.4-.18,1.76-1.28,3.04-2.38,1.24-1.1,2.56-2.01,2.89-2.01.88,0,2.63-1.76,2.38-2.41-.11-.33.4-1.21,1.32-2.2,1.83-1.98.48-2.05,12.44.73,6.48,1.54,9.4,2.05,11.45,2.05,1.57,0,2.74-.15,2.74-.37s-1.02-.37-2.38-.37c-1.72,0-2.38-.15-2.38-.48,0-.26.99-3.51,2.16-7.21,20.52-64.17,28.68-133.06,23.96-202.13-3.33-48.84-12.73-97.2-27.69-142.13-2.12-6.33-4.9-14.34-6.18-17.74-2.93-7.68-6.62-16.65-6.88-16.65-.11,0-2.52,6.95-5.38,15.47ZM229.38,369.17c3.51.88,7.68,2.74,12.99,5.71,5.6,3.18,15.84,10.06,15.66,10.54-.04.18-.84.77-1.68,1.24l-1.61.88-9.8-4.98c-5.38-2.71-13.17-6.51-17.27-8.49-7.79-3.66-9.8-4.83-9.29-5.34.84-.8,6.95-.59,11.01.44ZM173.29,376.26c3.62,1.13,10.72,3.37,15.73,4.94,5.05,1.57,13.35,4.17,18.47,5.78l9.33,2.89,1.06,1.94c.91,1.65.95,1.87.37,1.72-.4-.11-3.33-.8-6.55-1.57-16.5-3.77-33.69-9.73-41.27-14.3-2.6-1.61-5.52-4.06-4.28-3.62.29.11,3.51,1.1,7.13,2.23ZM290.55,376.96l8.12,2.3,3.95,4.35c2.16,2.41,3.91,4.39,3.88,4.43-.07.07-2.05-.55-4.46-1.39-8.12-2.74-13.76-4.02-18.73-4.24-3.95-.18-4.46-.29-4.24-.8.11-.33.59-1.65,1.06-2.96,1.39-3.91,1.65-4.43,2.01-4.21.18.11,3.99,1.24,8.41,2.52ZM399.2,381.97l1.83.4-1.17,1.39c-.84.95-1.32,1.32-1.61,1.06-.29-.22-1.02-.22-2.01,0-.88.18-1.61.33-1.61.29s-.26-.51-.55-1.1c-.4-.84-.4-1.13,0-1.94.59-1.02.84-1.02,5.12-.11ZM329.32,384.86c0,.18-.33.37-.7.37-.4,0-.84-.18-.95-.37-.15-.22.18-.37.7-.37s.95.15.95.37ZM343.08,386.87c.29.7.77,2.3,1.06,3.59.29,1.28.77,2.82,1.1,3.44.29.62.59,2.01.66,3.07l.07,1.98-2.01-.15c-1.1-.04-2.12-.18-2.23-.26-.15-.07-.33-2.34-.48-5.01-.37-6.77.48-9.84,1.83-6.66ZM391.55,388.48c-.48.88-3.95,4.06-4.43,4.06-.66,0,.51-2.96,2.12-5.38l.51-.84,1.06.77c.84.59.99.88.73,1.39ZM394.63,387.75c.51,1.02.51,1.1-.84,2.3-2.96,2.67-3.99,3.29-4.76,2.89-.66-.37-.59-.51,1.06-2.23.95-1.02,2.2-2.34,2.74-2.93.55-.62,1.06-1.1,1.1-1.1.07,0,.37.48.7,1.06ZM325.92,392.73c.07.22-.11.7-.37,1.06-.4.59-.62.62-1.32.22-.8-.4-.8-.44-.18-1.13.66-.73,1.65-.8,1.87-.15ZM294.42,399.82c5.63,1.02,11.78,2.05,13.68,2.3l3.48.48.11,1.76c.07,1.17-.04,1.72-.33,1.72-1.87,0-21.66-4.9-27.22-6.77l-3.66-1.21,1.87-.04c1.02-.04,6.48.77,12.07,1.76ZM316.08,403.3c.18.18-1.43,3.51-1.68,3.51-1.54-.04-1.9-.48-1.9-2.27v-1.83l1.76.26c.95.15,1.76.29,1.83.33ZM327.31,404.8c4.83.73,11.01,1.65,13.72,2.12l4.94.8.11,2.16.11,2.16-2.49-.22c-3.51-.33-27.77-4.5-28.21-4.83-.04-.04.22-.84.62-1.79.59-1.28.95-1.68,1.57-1.68.44,0,4.79.59,9.62,1.28ZM349.08,408.2c.48.22.51.59.26,2.16-.29,1.83-.37,1.94-1.39,1.94s-1.06,0-1.06-2.2c0-2.05.07-2.2.84-2.16.44,0,1.06.11,1.35.26ZM356.76,409.01c2.3.18,6.51.44,9.33.59q5.12.26,6.62,1.46c.84.7,1.72,1.76,1.94,2.38l.4,1.17-1.39-.26c-.73-.15-4.32-.4-7.94-.59-3.62-.22-8.49-.55-10.79-.73s-4.43-.37-4.72-.37c-.4,0-.44-.4-.26-1.9.33-2.38.4-2.49,1.61-2.3.55.11,2.89.33,5.19.55Z"/>
  <path class="cls-1" d="M328.54,248.66c-1.65.99-4.5,3-6.37,4.5-3.55,2.93-14.41,14.19-17.89,18.55-6.48,8.16-11.96,19.97-14.08,30.44-.73,3.66-1.24,5.34-1.24,4.17,0-.22-1.21.84-2.71,2.3-2.16,2.12-3.11,2.78-4.76,3.29-1.13.37-2.16.55-2.27.4-.15-.15.33-2.01,1.1-4.17,3-8.85,3.15-13.39.55-16.35l-1.1-1.24.77-1.24c.91-1.54.91-2.52,0-3.69-1.9-2.41-9.8-2.01-16.54.84-7.9,3.37-14.6,10.68-16.79,18.4-.8,2.85-.99,3.15-3.66,5.78-6.04,6.04-13.24,9.37-16.46,7.61-.7-.37-.48-.7,3.04-4.28,4.98-5.09,7.94-9.15,10.35-14.12,2.05-4.21,2.96-7.76,2.52-9.62-.77-3.22-2.38-4.32-5.93-4.02-4.06.33-9.37,3.29-18.26,10.28l-.88.66.26-1.02c.88-3.95,4.68-9.73,10.06-15.33,4.39-4.61,5.09-5.49,5.09-6.69,0-3.37-4.35-5.19-7.76-3.29-1.06.59-6.11,6.29-17.49,19.68-8.78,10.35-16.24,19.28-16.61,19.79-1.1,1.68-7.68,5.6-10.98,6.48-1.79.51-2.63.11-2.96-1.43-.37-1.61,1.68-5.56,4.94-9.48,6.18-7.43,7.54-9.69,7.1-11.78-.11-.66-.91-2.6-1.76-4.32-2.52-5.23-2.74-5.12-18.37,8.78-6,5.34-11.19,9.91-11.6,10.21-.48.33-.22-.26.7-1.65,2.6-4.02,4.65-7.65,6.4-11.27,1.5-3.04,1.79-3.95,1.79-5.71,0-2.56-1.02-4.32-3-5.05-1.13-.44-1.57-.44-3.29.07-1.57.44-2.05.8-2.63,1.87-1.1,2.01-3.18,3.73-4.98,4.02-1.02.18-2.05.73-3.04,1.61-4.39,3.88-10.61,9.99-15.26,14.93-5.05,5.38-6.55,6.59-6.04,4.76.51-1.65,3.26-5.93,6.15-9.44,6.04-7.39,6.84-8.63,6.84-10.72,0-.99-.26-1.43-1.13-2.09-1.54-1.06-5.89-1.43-7.5-.59-2.85,1.5-9.22,9.51-10.98,13.94-.88,2.16-1.39,2.82-3.62,4.68-12.26,10.32-22.68,13.06-26.56,6.95-.59-.91-1.06-2.16-1.06-2.74,0-2.41,2.34-5.49,8.19-10.72,3.04-2.74,4.02-3.44,4.24-3.04.18.29.8,1.21,1.46,2.09,2.01,2.82,3.69,2.93,6.4.4,1.9-1.76,5.3-6.73,6.62-9.69,1.24-2.82,1.57-6.33.73-7.68-1.24-1.87-4.35-2.45-8.34-1.54-4.87,1.13-14.41,7.13-19.72,12.37-4.39,4.35-5.96,7.21-6.84,12.62-.51,3.22-.51,3.99,0,8.56.84,7.24,2.49,10.24,6.66,12.15,1.94.88,6.99.91,9.77.11,5.01-1.5,11.71-5.78,16.5-10.54,1.32-1.32,2.52-2.41,2.63-2.41s.22.95.22,2.12c0,2.41,1.13,7.13,2.23,9.26.8,1.65,1.65,2.16,3.37,2.16,2.67,0,5.71-3,13.35-13.17,4.5-5.96,10.13-12.15,11.93-13.06l1.06-.55-.22,1.54c-.11.91-.91,2.74-2.01,4.5-.99,1.65-3,5.34-4.46,8.19-2.23,4.35-2.67,5.52-2.82,7.5-.48,5.78,3,7.76,8.16,4.65,1.21-.73,3.51-2.82,5.6-5.05,6.4-6.91,16.5-16.76,16.5-16.1,0,.11-.84,1.72-1.87,3.55-2.6,4.72-4.35,9.22-4.61,12-.18,2.01-.07,2.56.73,4.24,1.13,2.3,3.37,3.95,5.38,3.95.73,0,2.45-.55,3.95-1.28,4.5-2.16,8.34-4.94,17.01-12.4,4.17-3.59,4.65-4.1,4.46-4.94s.51-1.65,5.85-6.99l6.07-6.04-8.63,15.29c-12.95,23.01-14.01,25.39-14.34,32.3-.18,3.18-.11,3.91.55,5.38.62,1.39.95,1.72,1.68,1.72,2.6,0,7.39-8.23,12.48-21.4,1.17-3.04,2.23-5.6,2.38-5.78.11-.15.95-.04,1.79.29,2.01.7,4.68.7,6.04,0,1.35-.73,1.46-.7,3.07.33,4.17,2.67,11.96,2.09,18.73-1.46,3.26-1.68,8.12-5.41,10.9-8.34,1.28-1.32,2.38-2.41,2.45-2.41s.22.88.37,1.9c.33,2.63,1.83,7.02,2.93,8.63,2.78,4.1,9.22,5.16,15,2.49,2.56-1.17,6-3.88,7.46-5.85,1.24-1.68,1.28-1.68,3.4-1.68,5.23,0,8.71-1.54,12.26-5.45l1.54-1.68.04,2.49c.04,5.71,2.12,10.72,5.12,12.26,1.35.7,2.05.84,3.91.7,4.24-.33,10.5-4.02,15.15-8.93l2.74-2.93,3.4-.18c3.11-.18,3.69-.37,6.44-1.72,3.26-1.68,7.13-4.83,7.13-5.85s-1.13-4.06-1.46-4.06c-.18,0-1.06.48-1.94,1.1-3.07,2.05-5.78,3.29-7.24,3.29-.77,0-1.43-.07-1.43-.18s.4-.99.88-1.94,1.35-3.11,1.94-4.83c4.72-13.46-.15-18.26-9.22-9.04-5.67,5.78-8.19,13.28-5.93,17.71.55,1.02.55,1.17-.37,2.52-2.3,3.51-4.87,5.19-7.21,4.76-2.89-.55-4.65-5.01-4.06-10.32l.26-2.38,4.61-4.98c19.17-20.49,27.8-31.1,31.64-38.71,2.85-5.74,3.51-13.39,1.21-14.89-1.06-.73-3.07-.26-6,1.43ZM326.28,259.74c-2.49,4.9-12.44,18.95-18.95,26.71-3.33,3.95-4.35,4.98-4.72,4.61-.7-.7,4.72-9.66,10.39-17.19,5.09-6.73,13.9-16.94,14.27-16.54.07.07-.37,1.17-.99,2.41ZM267.71,300.9c-2.38,5.23-3.04,9.84-1.98,13.87.7,2.63.48,2.96-3.07,4.72-3.77,1.83-7.06,1.5-8.3-.91-1.17-2.27-.18-7.87,2.01-11.34.62-.99,2.23-2.56,3.8-3.73,2.63-2.01,8.3-5.45,8.56-5.19.07.04-.4,1.24-1.02,2.6ZM228.85,299.51c.66,1.68-1.76,6.4-6.59,13.06l-2.49,3.4-1.54-.55c-.84-.29-2.71-.55-4.17-.59-3.04-.04-3.07.26.29-4.28,3.77-5.09,9.4-10.43,12.04-11.41,1.1-.4,2.23-.26,2.45.37Z"/>
  <path class="cls-1" d="M133.74,300.85c-.4.37-.29,1.94.11,1.94.22,0,.37-.51.37-1.1,0-1.13-.07-1.28-.48-.84Z"/>
  <path class="cls-1" d="M64.89,218.33c-18.55,7.23-40.48,24.3-51.92,40.49-7.29,10.29-11.21,18.95-12.56,27.81-.77,5.04-.39,16.5.68,20.58,2.17,8.3,6.96,15.48,12.27,18.49,14.39,8.1,35.65.56,53.76-19.05,7.82-8.51,11.4-14.01,17.2-26.33,4.88-10.39,7.1-23.94,5.17-31.68-1.64-6.77-4.35-9.47-10.58-10.59l-3.86-.66,1.93-.66c3.14-1.12,7.15-3.41,8.4-4.79,1.45-1.68,1.16-3.16-1.64-7.28-5.31-7.84-10.43-9.58-18.84-6.32ZM74.12,248.33c2.17,1.38,2.51-13.07,2.13-7.93-.14,2.24-.34,22.24-.77,23.77-3.33,11.87-19.32,33.97-30.62,42.33-4.98,3.72-8.11,5.4-13.77,7.39-8.74,3.06-13.14,2.6-15.22-1.63-1.21-2.5-.97-12.33.43-16.76,2.22-6.98,7.05-16.2,11.59-22.05l1.69-2.24.63,1.88c1.55,4.69,2.85,4.48,5.65-.92,2.9-5.6,7.68-10.44,16.62-16.86,9.81-6.98,17.68-9.52,21.64-6.98Z"/>
  <path class="cls-1" d="M112.32,268.26c-6,1.06-11.27,2.78-16.46,5.38-7.68,3.8-11.63,8.3-11.6,13.24,0,2.45.59,4.35,1.24,4.13.26-.11,1.06-1.06,1.83-2.16,4.17-6.11,13.28-10.76,22.97-11.74,3.84-.37,9.62-.07,11.49.66.84.33,4.28-5.16,4.17-6.62-.11-1.21-1.72-2.49-3.91-3.11-1.83-.51-6.22-.4-9.73.22Z"/>
  <path class="cls-1" d="M302.53,308.81l-2.27,2.78,1.5.66c.8.37,1.5.62,1.54.59.15-.18,1.61-6.66,1.54-6.73-.04-.04-1.1,1.17-2.3,2.71Z"/>
  <path class="cls-1" d="M176.32,298.55c-.04,1.24.07,1.72.33,1.46s.26-.88.04-1.83l-.33-1.43-.04,1.79Z"/>
  <text class="cls-3" transform="translate(17.98 473.33)"><tspan x="0" y="0">Парусный Клуб</tspan></text>
</svg>