<svg width="528" height="382" viewBox="0 0 528 382" fill="none" xmlns="http://www.w3.org/2000/svg">
<path d="M496.522 273.481H486.586V238.921L464.05 273.481H454.114V221.641H464.05V256.201L486.586 221.641H496.522V273.481Z" fill="#eaf3fa"/>
<path d="M416.526 273.481V265.921C413.862 266.377 411.33 266.281 408.93 265.633C406.554 264.961 404.442 263.785 402.594 262.105C400.746 260.401 399.294 258.217 398.238 255.553C397.182 252.865 396.654 249.721 396.654 246.121C396.654 242.521 397.182 239.365 398.238 236.653C399.294 233.941 400.746 231.721 402.594 229.993C404.442 228.241 406.554 227.017 408.93 226.321C411.33 225.625 413.862 225.505 416.526 225.961V221.641H426.246V225.961C428.91 225.505 431.442 225.625 433.842 226.321C436.242 227.017 438.366 228.241 440.214 229.993C442.062 231.721 443.514 233.941 444.57 236.653C445.65 239.365 446.19 242.521 446.19 246.121C446.19 249.721 445.65 252.865 444.57 255.553C443.514 258.217 442.062 260.401 440.214 262.105C438.366 263.785 436.242 264.961 433.842 265.633C431.442 266.281 428.91 266.377 426.246 265.921V273.481H416.526ZM416.526 256.993V234.745C414.486 234.409 412.806 234.541 411.486 235.141C410.19 235.741 409.182 236.629 408.462 237.805C407.766 238.957 407.274 240.277 406.986 241.765C406.722 243.229 406.59 244.681 406.59 246.121C406.59 247.561 406.722 248.989 406.986 250.405C407.274 251.821 407.766 253.093 408.462 254.221C409.182 255.325 410.19 256.141 411.486 256.669C412.806 257.197 414.486 257.305 416.526 256.993ZM426.246 256.993C428.286 257.305 429.954 257.197 431.25 256.669C432.546 256.117 433.554 255.301 434.274 254.221C435.018 253.117 435.534 251.881 435.822 250.513C436.11 249.121 436.254 247.753 436.254 246.409C436.254 245.065 436.11 243.649 435.822 242.161C435.534 240.673 435.018 239.317 434.274 238.093C433.554 236.845 432.546 235.897 431.25 235.249C429.954 234.577 428.286 234.409 426.246 234.745V256.993Z" fill="#eaf3fa"/>
<path d="M388.769 273.481H378.833V238.921L356.297 273.481H346.361V221.641H356.297V256.201L378.833 221.641H388.769V273.481Z" fill="#eaf3fa"/>
<path d="M283.696 273.481V221.641H292.48L309.616 256.057L326.752 221.641H335.536V273.481H326.392V242.521L311.344 273.481H307.888L292.84 242.521V273.481H283.696Z" fill="#eaf3fa"/>
<path d="M215.094 273.481L230.934 221.641H245.55L261.39 273.481H251.31L237.198 227.761H239.07L225.174 273.481H215.094ZM224.598 262.681V253.537H251.958V262.681H224.598Z" fill="#eaf3fa"/>
<path d="M179.794 273.481V221.641H213.634V230.785H189.586V273.481H179.794Z" fill="#eaf3fa"/>
<path d="M122.88 273.481V265.345C123.984 265.417 124.92 265.321 125.688 265.057C126.456 264.793 127.104 264.313 127.632 263.617C128.184 262.897 128.664 261.913 129.072 260.665C129.48 259.393 129.864 257.809 130.224 255.913C130.8 252.913 131.28 249.757 131.664 246.445C132.072 243.109 132.408 239.845 132.672 236.653C132.936 233.461 133.14 230.557 133.284 227.941C133.428 225.301 133.536 223.201 133.608 221.641H168.96V273.481H159.168V230.785H142.608C142.512 232.129 142.38 233.881 142.212 236.041C142.068 238.201 141.864 240.589 141.6 243.205C141.336 245.821 141.012 248.533 140.628 251.341C140.244 254.149 139.776 256.873 139.224 259.513C138.72 262.081 138.108 264.361 137.388 266.353C136.668 268.321 135.708 269.941 134.508 271.213C133.332 272.461 131.808 273.289 129.936 273.697C128.064 274.105 125.712 274.033 122.88 273.481Z" fill="#eaf3fa"/>
<path d="M94.8516 274.561C89.6676 274.561 85.1916 273.433 81.4236 271.177C77.6796 268.921 74.7876 265.765 72.7476 261.709C70.7316 257.653 69.7236 252.937 69.7236 247.561C69.7236 242.185 70.7316 237.469 72.7476 233.413C74.7876 229.357 77.6796 226.201 81.4236 223.945C85.1916 221.689 89.6676 220.561 94.8516 220.561C100.036 220.561 104.5 221.689 108.244 223.945C112.012 226.201 114.904 229.357 116.92 233.413C118.96 237.469 119.98 242.185 119.98 247.561C119.98 252.937 118.96 257.653 116.92 261.709C114.904 265.765 112.012 268.921 108.244 271.177C104.5 273.433 100.036 274.561 94.8516 274.561ZM94.8516 265.345C98.1396 265.393 100.876 264.685 103.06 263.221C105.244 261.757 106.876 259.681 107.956 256.993C109.06 254.305 109.612 251.161 109.612 247.561C109.612 243.961 109.06 240.841 107.956 238.201C106.876 235.561 105.244 233.509 103.06 232.045C100.876 230.581 98.1396 229.825 94.8516 229.777C91.5636 229.729 88.8276 230.437 86.6436 231.901C84.4596 233.365 82.8156 235.441 81.7116 238.129C80.6316 240.817 80.0916 243.961 80.0916 247.561C80.0916 251.161 80.6316 254.281 81.7116 256.921C82.8156 259.561 84.4596 261.613 86.6436 263.077C88.8276 264.541 91.5636 265.297 94.8516 265.345Z" fill="#eaf3fa"/>
<path d="M26.04 273.481V221.641H46.776C50.472 221.641 53.46 222.385 55.74 223.873C58.02 225.337 59.688 227.185 60.744 229.417C61.8 231.649 62.328 233.905 62.328 236.185C62.328 239.089 61.668 241.501 60.348 243.421C59.052 245.341 57.264 246.625 54.984 247.273V245.473C58.224 246.145 60.648 247.645 62.256 249.973C63.888 252.301 64.704 254.905 64.704 257.785C64.704 260.881 64.128 263.605 62.976 265.957C61.848 268.309 60.12 270.157 57.792 271.501C55.464 272.821 52.536 273.481 49.008 273.481H26.04ZM35.976 264.265H48C49.32 264.265 50.496 263.989 51.528 263.437C52.56 262.861 53.364 262.069 53.94 261.061C54.54 260.029 54.84 258.817 54.84 257.425C54.84 256.201 54.588 255.109 54.084 254.149C53.58 253.189 52.812 252.433 51.78 251.881C50.772 251.305 49.512 251.017 48 251.017H35.976V264.265ZM35.976 241.873H46.632C47.736 241.873 48.72 241.681 49.584 241.297C50.448 240.913 51.132 240.325 51.636 239.533C52.14 238.717 52.392 237.673 52.392 236.401C52.392 234.817 51.9 233.485 50.916 232.405C49.932 231.325 48.504 230.785 46.632 230.785H35.976V241.873Z" fill="#eaf3fa"/>
<path d="M483 121L429.399 61L372.77 121L316.142 61L259.513 121L202.885 61L146.257 121L89.6283 61L33 121" stroke="#eaf3fa" stroke-width="10"/>
<path d="M483 83L429.399 23L372.77 83L316.142 23L259.513 83L202.885 23L146.257 83L89.6283 23L33 83" stroke="#eaf3fa" stroke-width="10"/>
<path fill-rule="evenodd" clip-rule="evenodd" d="M372.77 168.284L316.141 108.284L279.422 147.189L273.068 139.352L316.141 93.7146L372.77 153.715L429.499 93.6074L478.091 148H464.682L429.297 108.391L372.77 168.284ZM202.885 108.284L239.528 147.108L245.73 139.111L202.885 93.7146L146.256 153.715L89.6278 93.7146L29.3633 157.567L36.6357 164.431L89.6279 108.284L146.256 168.284L202.885 108.284Z" fill="#eaf3fa"/>
<circle cx="260.5" cy="180.98" r="12.5" fill="#eaf3fa"/>
<path fill-rule="evenodd" clip-rule="evenodd" d="M488.849 180.366L470 155H482.957L501.386 179.742L485.717 208H473.409L488.849 180.366Z" fill="#eaf3fa"/>
<path fill-rule="evenodd" clip-rule="evenodd" d="M488.849 319.366L470 294H482.957L501.386 318.742L485.717 347H473.409L488.849 319.366Z" fill="#eaf3fa"/>
<path d="M25 181H86.75H202.25L260 121L317.75 181H433.25H491" stroke="#eaf3fa" stroke-width="10"/>
<path fill-rule="evenodd" clip-rule="evenodd" d="M480.757 325H491V315H392.648C393.712 316.378 394.767 317.796 395.812 319.252C397.288 321.309 398.743 323.223 400.176 325H461.525C462.958 323.223 464.412 321.309 465.889 319.252L468.222 316.002L480.757 325ZM382.666 325H395.092C394.253 323.903 393.409 322.764 392.562 321.584C390.905 319.275 389.234 317.079 387.548 315H374.255C377.014 317.879 379.818 321.203 382.666 325ZM368.581 315C371.49 317.735 374.504 321.045 377.622 325H314.679C317.797 321.045 320.811 317.735 323.72 315H368.581ZM318.045 315H304.752C303.067 317.079 301.396 319.275 299.739 321.584C298.892 322.764 298.048 323.903 297.209 325H309.635C312.483 321.203 315.287 317.879 318.045 315ZM213.266 325H225.692C224.853 323.903 224.009 322.764 223.162 321.584C221.505 319.275 219.833 317.079 218.148 315H204.855C207.614 317.879 210.418 321.203 213.266 325ZM154.32 315H199.181C202.09 317.735 205.104 321.045 208.222 325H145.279C148.397 321.045 151.411 317.735 154.32 315ZM148.645 315H135.352C133.667 317.079 131.996 319.275 130.339 321.584C129.491 322.764 128.648 323.903 127.809 325H140.234C143.083 321.203 145.887 317.879 148.645 315ZM43.9202 325H56.2919C55.4526 323.903 54.6094 322.764 53.7623 321.584C47.2687 315.922 43.0021 321.175 43.9202 325ZM122.725 325H61.3762C59.9433 323.223 58.4884 321.309 57.0119 319.252L56.7412 318.875L56.3913 318.57C53.8999 316.397 51.2029 315.121 48.4486 315.097C45.612 315.072 43.2937 316.387 41.8006 318.24C40.414 319.96 39.5869 322.515 39.8549 325H29V315H130.253C129.189 316.378 128.134 317.796 127.089 319.252C125.612 321.309 124.158 323.223 122.725 325ZM223.248 315C224.312 316.378 225.367 317.796 226.412 319.252C227.888 321.309 229.343 323.223 230.776 325H292.125C293.558 323.223 295.012 321.309 296.489 319.252C297.534 317.796 298.589 316.378 299.653 315H223.248ZM466.609 325C467.448 323.903 468.292 322.764 469.139 321.584L473.897 325H466.609Z" fill="#eaf3fa"/>
<path fill-rule="evenodd" clip-rule="evenodd" d="M90 325H25V315H90V325Z" fill="#eaf3fa"/>
<path fill-rule="evenodd" clip-rule="evenodd" d="M491 325H426V315H491V325Z" fill="#eaf3fa"/>
<path fill-rule="evenodd" clip-rule="evenodd" d="M176.75 300C165.116 300 152.301 308.135 138.462 327.416C124.068 347.469 108.649 359 92.0502 359C75.8932 359 60.8547 348.075 46.7908 329H59.4847C71.1481 342.973 82.0365 349 92.0502 349C103.684 349 116.499 340.865 130.338 321.584C144.732 301.531 160.151 290 176.75 290C193.349 290 208.768 301.531 223.162 321.584C237.001 340.865 249.816 349 261.45 349C273.084 349 285.899 340.865 299.738 321.584C314.132 301.531 329.551 290 346.15 290C362.749 290 378.168 301.531 392.562 321.584C406.401 340.865 419.216 349 430.85 349C440.864 349 451.752 342.973 463.416 329H476.11C462.046 348.075 447.007 359 430.85 359C414.251 359 398.832 347.469 384.438 327.416C370.599 308.135 357.784 300 346.15 300C334.516 300 321.701 308.135 307.862 327.416C293.468 347.469 278.049 359 261.45 359C244.851 359 229.432 347.469 215.038 327.416C201.199 308.135 188.384 300 176.75 300ZM56.2917 325C55.4524 323.903 54.6091 322.764 53.7621 321.584C47.2685 315.922 43.0019 321.175 43.92 325H56.2917ZM473.897 325H466.609C467.448 323.903 468.291 322.764 469.138 321.584L473.897 325Z" fill="#eaf3fa"/>
</svg>
